<mxfile host="app.diagrams.net" modified="2022-10-06T09:06:37.080Z" agent="5.0 (Windows NT 10.0; Win64; x64) AppleWebKit/537.36 (KHTML, like Gecko) Chrome/105.0.0.0 Safari/537.36" etag="5SLIObzgLa1lCkC0nuJM" version="20.3.6" type="github">
  <diagram id="d1bJhbExhzJeG2a6k_eR" name="Page-1">
    <mxGraphModel dx="2272" dy="732" grid="1" gridSize="10" guides="1" tooltips="1" connect="1" arrows="1" fold="1" page="1" pageScale="1" pageWidth="850" pageHeight="1100" math="0" shadow="0">
      <root>
        <mxCell id="0" />
        <mxCell id="1" parent="0" />
        <mxCell id="DL42FL_NDcpS7wigHATb-4" value="" style="edgeStyle=orthogonalEdgeStyle;rounded=0;orthogonalLoop=1;jettySize=auto;html=1;" edge="1" parent="1" source="DL42FL_NDcpS7wigHATb-1" target="DL42FL_NDcpS7wigHATb-3">
          <mxGeometry relative="1" as="geometry" />
        </mxCell>
        <mxCell id="DL42FL_NDcpS7wigHATb-12" value="" style="edgeStyle=orthogonalEdgeStyle;rounded=0;orthogonalLoop=1;jettySize=auto;html=1;" edge="1" parent="1" source="DL42FL_NDcpS7wigHATb-1" target="DL42FL_NDcpS7wigHATb-11">
          <mxGeometry relative="1" as="geometry" />
        </mxCell>
        <mxCell id="DL42FL_NDcpS7wigHATb-1" value="CommandAdaptor" style="rounded=0;whiteSpace=wrap;html=1;fontStyle=1" vertex="1" parent="1">
          <mxGeometry x="370" y="80" width="120" height="60" as="geometry" />
        </mxCell>
        <mxCell id="DL42FL_NDcpS7wigHATb-6" value="" style="edgeStyle=orthogonalEdgeStyle;rounded=0;orthogonalLoop=1;jettySize=auto;html=1;" edge="1" parent="1" source="DL42FL_NDcpS7wigHATb-3" target="DL42FL_NDcpS7wigHATb-5">
          <mxGeometry relative="1" as="geometry" />
        </mxCell>
        <mxCell id="DL42FL_NDcpS7wigHATb-3" value="process_command" style="rounded=0;whiteSpace=wrap;html=1;" vertex="1" parent="1">
          <mxGeometry x="340" y="290" width="110" height="40" as="geometry" />
        </mxCell>
        <mxCell id="DL42FL_NDcpS7wigHATb-8" value="" style="edgeStyle=orthogonalEdgeStyle;rounded=0;orthogonalLoop=1;jettySize=auto;html=1;" edge="1" parent="1" source="DL42FL_NDcpS7wigHATb-5" target="DL42FL_NDcpS7wigHATb-7">
          <mxGeometry relative="1" as="geometry" />
        </mxCell>
        <mxCell id="DL42FL_NDcpS7wigHATb-10" value="" style="edgeStyle=orthogonalEdgeStyle;rounded=0;orthogonalLoop=1;jettySize=auto;html=1;" edge="1" parent="1" source="DL42FL_NDcpS7wigHATb-5" target="DL42FL_NDcpS7wigHATb-9">
          <mxGeometry relative="1" as="geometry" />
        </mxCell>
        <mxCell id="DL42FL_NDcpS7wigHATb-5" value="Command" style="rhombus;whiteSpace=wrap;html=1;rounded=0;" vertex="1" parent="1">
          <mxGeometry x="500" y="270" width="80" height="80" as="geometry" />
        </mxCell>
        <mxCell id="DL42FL_NDcpS7wigHATb-7" value="MOVE&lt;br&gt;..." style="whiteSpace=wrap;html=1;rounded=0;" vertex="1" parent="1">
          <mxGeometry x="630" y="230" width="120" height="60" as="geometry" />
        </mxCell>
        <mxCell id="DL42FL_NDcpS7wigHATb-23" style="edgeStyle=orthogonalEdgeStyle;rounded=0;orthogonalLoop=1;jettySize=auto;html=1;entryX=1;entryY=0.5;entryDx=0;entryDy=0;exitX=0.5;exitY=1;exitDx=0;exitDy=0;" edge="1" parent="1" source="DL42FL_NDcpS7wigHATb-9" target="DL42FL_NDcpS7wigHATb-18">
          <mxGeometry relative="1" as="geometry" />
        </mxCell>
        <mxCell id="DL42FL_NDcpS7wigHATb-9" value="PLACE_OBJECT" style="whiteSpace=wrap;html=1;rounded=0;fontStyle=1" vertex="1" parent="1">
          <mxGeometry x="630" y="330" width="120" height="60" as="geometry" />
        </mxCell>
        <mxCell id="DL42FL_NDcpS7wigHATb-21" style="edgeStyle=orthogonalEdgeStyle;rounded=0;orthogonalLoop=1;jettySize=auto;html=1;entryX=0.5;entryY=0;entryDx=0;entryDy=0;" edge="1" parent="1" source="DL42FL_NDcpS7wigHATb-11" target="DL42FL_NDcpS7wigHATb-16">
          <mxGeometry relative="1" as="geometry" />
        </mxCell>
        <mxCell id="DL42FL_NDcpS7wigHATb-11" value="place (robot)" style="rounded=0;whiteSpace=wrap;html=1;fontStyle=0" vertex="1" parent="1">
          <mxGeometry x="80" y="150" width="120" height="60" as="geometry" />
        </mxCell>
        <mxCell id="DL42FL_NDcpS7wigHATb-17" value="" style="edgeStyle=orthogonalEdgeStyle;rounded=0;orthogonalLoop=1;jettySize=auto;html=1;" edge="1" parent="1" source="DL42FL_NDcpS7wigHATb-15" target="DL42FL_NDcpS7wigHATb-16">
          <mxGeometry relative="1" as="geometry" />
        </mxCell>
        <mxCell id="DL42FL_NDcpS7wigHATb-19" value="" style="edgeStyle=orthogonalEdgeStyle;rounded=0;orthogonalLoop=1;jettySize=auto;html=1;" edge="1" parent="1" source="DL42FL_NDcpS7wigHATb-15" target="DL42FL_NDcpS7wigHATb-18">
          <mxGeometry relative="1" as="geometry" />
        </mxCell>
        <mxCell id="DL42FL_NDcpS7wigHATb-15" value="ToyRobotSimulation" style="rounded=0;whiteSpace=wrap;html=1;fontStyle=1" vertex="1" parent="1">
          <mxGeometry x="-50" y="460" width="120" height="60" as="geometry" />
        </mxCell>
        <mxCell id="DL42FL_NDcpS7wigHATb-16" value="place_robot" style="whiteSpace=wrap;html=1;rounded=0;fontStyle=0;" vertex="1" parent="1">
          <mxGeometry x="-250" y="460" width="120" height="60" as="geometry" />
        </mxCell>
        <mxCell id="DL42FL_NDcpS7wigHATb-18" value="place_object" style="whiteSpace=wrap;html=1;rounded=0;fontStyle=1;" vertex="1" parent="1">
          <mxGeometry x="-100" y="600" width="120" height="60" as="geometry" />
        </mxCell>
      </root>
    </mxGraphModel>
  </diagram>
</mxfile>
